<svg id="eVJsoaXNIvA1" xmlns="http://www.w3.org/2000/svg" xmlns:xlink="http://www.w3.org/1999/xlink" viewBox="0 0 202 33" shape-rendering="geometricPrecision" text-rendering="geometricPrecision" width="202" height="33"><style><![CDATA[#eVJsoaXNIvA3_to {animation: eVJsoaXNIvA3_to__to 3000ms linear infinite normal forwards}@keyframes eVJsoaXNIvA3_to__to { 0% {transform: translate(260.950005px,15.550002px)} 33.333333% {transform: translate(260.950005px,15.550002px)} 36.666667% {transform: translate(189.050011px,15.550002px)} 100% {transform: translate(189.050011px,15.550002px)}} #eVJsoaXNIvA5_to {animation: eVJsoaXNIvA5_to__to 3000ms linear infinite normal forwards}@keyframes eVJsoaXNIvA5_to__to { 0% {transform: translate(262.699997px,15.4px)} 26.666667% {transform: translate(262.699997px,15.4px)} 33.333333% {transform: translate(164.399994px,15.4px)} 100% {transform: translate(164.399994px,15.4px)}} #eVJsoaXNIvA7_to {animation: eVJsoaXNIvA7_to__to 3000ms linear infinite normal forwards}@keyframes eVJsoaXNIvA7_to__to { 0% {transform: translate(255.550003px,15.4px)} 23.333333% {transform: translate(255.550003px,15.4px)} 30% {transform: translate(141.550003px,15.4px)} 100% {transform: translate(141.550003px,15.4px)}} #eVJsoaXNIvA10_to {animation: eVJsoaXNIvA10_to__to 3000ms linear infinite normal forwards}@keyframes eVJsoaXNIvA10_to__to { 0% {transform: translate(216.249997px,15.399999px)} 20% {transform: translate(216.249997px,15.399999px)} 23.333333% {transform: translate(118.449997px,15.399999px)} 100% {transform: translate(118.449997px,15.399999px)}} #eVJsoaXNIvA12_to {animation: eVJsoaXNIvA12_to__to 3000ms linear infinite normal forwards}@keyframes eVJsoaXNIvA12_to__to { 0% {transform: translate(214.200002px,15.35px)} 13.333333% {transform: translate(214.200002px,15.35px)} 20% {transform: translate(87.400002px,15.35px)} 100% {transform: translate(87.400002px,15.35px)}} #eVJsoaXNIvA14_to {animation: eVJsoaXNIvA14_to__to 3000ms linear infinite normal forwards}@keyframes eVJsoaXNIvA14_to__to { 0% {transform: translate(212.549998px,15.4px)} 10% {transform: translate(212.549998px,15.4px)} 16.666667% {transform: translate(66.649998px,15.4px)} 100% {transform: translate(66.649998px,15.4px)}} #eVJsoaXNIvA16_to {animation: eVJsoaXNIvA16_to__to 3000ms linear infinite normal forwards}@keyframes eVJsoaXNIvA16_to__to { 0% {transform: translate(216.45px,15.4px)} 3.333333% {transform: translate(216.45px,15.4px)} 13.333333% {transform: translate(38.75px,15.4px)} 100% {transform: translate(38.75px,15.4px)}} #eVJsoaXNIvA17_to {animation: eVJsoaXNIvA17_to__to 3000ms linear infinite normal forwards}@keyframes eVJsoaXNIvA17_to__to { 0% {transform: translate(214.9px,15.450001px)} 10% {transform: translate(11.8px,15.450001px)} 100% {transform: translate(11.8px,15.450001px)}}]]></style><g transform="translate(0 1)"><g id="eVJsoaXNIvA3_to" transform="translate(260.950005,15.550002)"><g transform="translate(-189.050011,-15.550002)"><path d="M196.6,21.6c0,2.9-1,5.1-3,6.8s-4.8,2.5-8.2,2.5c-3,0-5.5-.6-7.3-1.8v-5.6c2.6,1.5,5.1,2.2,7.3,2.2c1.5,0,2.7-.3,3.6-.9s1.3-1.4,1.3-2.4c0-.6-.1-1.1-.3-1.5s-.4-.9-.8-1.2c-.3-.4-1.2-1.1-2.5-2.1-1.9-1.4-3.2-2.7-4-4s-1.1-2.8-1.1-4.3c0-1.8.4-3.3,1.3-4.7.8-1.4,2.1-2.5,3.6-3.2c1.6-.8,3.4-1.2,5.4-1.2c3,0,5.7.7,8.1,2L197.8,7c-2.1-1-4.1-1.5-5.9-1.5-1.1,0-2.1.3-2.8.9s-1.1,1.4-1.1,2.4c0,.8.2,1.6.7,2.2s1.5,1.4,3,2.5c1.7,1.1,2.9,2.3,3.7,3.6.8,1.2,1.2,2.7,1.2,4.5Z" fill="none" stroke="#fff"/></g></g><g id="eVJsoaXNIvA5_to" transform="translate(262.699997,15.4)"><g transform="translate(-164.399994,-15.4)"><path d="M161.4,18.9L159,30.4h-6.3l6.3-30h7.4c3.2,0,5.7.7,7.3,2.1s2.4,3.4,2.4,6.1c0,2.2-.6,4-1.7,5.6s-2.8,2.7-4.9,3.5l5.4,12.7h-6.8l-4.2-11.5h-2.5Zm1.1-5.2h1.6c1.8,0,3.2-.4,4.2-1.2s1.5-2,1.5-3.6c0-1.1-.3-2-1-2.5-.7-.6-1.7-.8-3.1-.8h-1.5l-1.7,8.1Z" fill="none" stroke="#fff"/></g></g><g id="eVJsoaXNIvA7_to" transform="translate(255.550003,15.4)"><g transform="translate(-141.550003,-15.4)"><path d="M146.7,30.4h-16.7l6.3-30h16.8L152,5.6h-10.5l-1.4,6.6h9.8l-1.1,5.2h-9.8l-1.6,7.7h10.5l-1.2,5.3Z" fill="none" stroke="#fff"/></g></g><g transform="translate(2 0)"><g id="eVJsoaXNIvA10_to" transform="translate(216.249997,15.399999)"><path d="M126.5,30.4h-6.9l-4.3-12.1-2.6,1.4-2.2,10.7h-6.3l6.3-30h6.3l-3.1,14.4l3.2-4.2l8.4-10.2h7.4L120.5,14.8l6,15.6Z" transform="translate(-118.449997,-15.399999)" fill="none" stroke="#fff"/></g></g><g transform="translate(3 0)"><g id="eVJsoaXNIvA12_to" transform="translate(214.200002,15.35)"><path d="M94,23.3h-9.7l-3.5,7.1h-6.6L89.9,0.3h7.7l3,30.1h-6.1L94,23.3ZM93.7,18l-.5-7.2C93,9,93,7.2,93,5.6v-.8c-.6,1.6-1.3,3.4-2.2,5.2l-3.9,8h6.8Z" transform="translate(-87.400002,-15.35)" fill="none" stroke="#fff"/></g></g><g transform="translate(3 0)"><g id="eVJsoaXNIvA14_to" transform="translate(212.549998,15.4)"><path d="M71.8,30.4h-16.7l6.3-30h16.8L77.1,5.6h-10.5l-1.4,6.6h9.8l-1.1,5.2h-9.8l-1.6,7.7h10.5l-1.2,5.3Z" transform="translate(-66.649998,-15.4)" fill="none" stroke="#fff"/></g></g><g transform="translate(3 0)"><g id="eVJsoaXNIvA16_to" transform="translate(216.45,15.4)"><path d="M47.8,30.4h-7L33.5,7.7h-.1l-.1.7c-.4,3-.9,5.6-1.4,7.9l-3,14.1h-5.6l6.3-30h7.4l7,22.1h.1c.2-1,.4-2.5.8-4.5.4-1.9,1.6-7.8,3.7-17.6h5.6l-6.4,30Z" transform="translate(-38.75,-15.4)" fill="none" stroke="#fff"/></g></g><g id="eVJsoaXNIvA17_to" transform="translate(214.9,15.450001)"><g transform="translate(-11.8,-15.450001)"><path d="M19.4,21.6c0,2.9-1,5.1-3,6.8s-4.8,2.5-8.2,2.5c-3,0-5.5-.6-7.3-1.8v-5.6C3.5,25,6,25.7,8.2,25.7c1.5,0,2.7-.3,3.6-.9s1.3-1.4,1.3-2.4c0-.6-.1-1.1-.3-1.5s-.4-.9-.8-1.2c-.3-.4-1.2-1.1-2.5-2.1-1.9-1.4-3.2-2.7-4-4s-1.1-2.8-1.1-4.3c0-1.8.4-3.3,1.3-4.7.7-1.6,2-2.7,3.5-3.4C10.8,0.4,12.6,0,14.6,0c3,0,5.7.7,8.1,2L20.5,6.8c-2.1-1-4.1-1.5-5.9-1.5-1.1,0-2.1.3-2.8.9s-1.1,1.4-1.1,2.4c0,.8.2,1.6.7,2.2s1.5,1.4,3,2.5c1.7,1.1,2.9,2.3,3.7,3.6.9,1.4,1.3,2.9,1.3,4.7Z" fill="none" stroke="#fff"/></g></g></g></svg>