<svg width="744.508" height="110.083" viewBox="0 0 744.508 110.083" xmlns="http://www.w3.org/2000/svg">
	<g id="svgGroup" stroke-linecap="round" fill-rule="evenodd" font-size="9pt" stroke="#000" stroke-width="0.25mm" fill="none" style="stroke:#000;stroke-width:0.25mm;fill:none">
		<path d="M 0 103.638 L 0 82.544 A 174.07 174.07 0 0 0 15.82 88.623 A 52.602 52.602 0 0 0 29.05 91.238 A 48.234 48.234 0 0 0 32.08 91.333 A 34.534 34.534 0 0 0 35.633 91.162 Q 37.371 90.982 38.829 90.612 A 14.907 14.907 0 0 0 41.052 89.869 A 12.967 12.967 0 0 0 43.428 88.557 Q 44.995 87.447 45.922 85.962 A 8.254 8.254 0 0 0 45.996 85.84 A 10.848 10.848 0 0 0 47.489 81.092 A 13.37 13.37 0 0 0 47.534 79.981 A 9.644 9.644 0 0 0 44.824 73.096 A 21.969 21.969 0 0 0 42.067 70.667 Q 40.616 69.577 38.834 68.547 A 42.019 42.019 0 0 0 37.39 67.749 A 281.822 281.822 0 0 0 32.364 65.168 A 385.589 385.589 0 0 0 26.733 62.403 A 96.691 96.691 0 0 1 22.833 60.453 A 131.519 131.519 0 0 1 18.604 58.118 A 45.872 45.872 0 0 1 10.75 52.382 A 50.955 50.955 0 0 1 10.254 51.929 A 28.906 28.906 0 0 1 4.426 44.315 A 33.464 33.464 0 0 1 3.772 43.03 Q 1.338 37.985 1.249 31.003 A 41.8 41.8 0 0 1 1.245 30.469 A 34.993 34.993 0 0 1 2.117 22.476 A 26.552 26.552 0 0 1 5.64 14.063 A 27.243 27.243 0 0 1 15.623 4.901 A 33.951 33.951 0 0 1 18.201 3.626 A 40.524 40.524 0 0 1 27.715 0.797 Q 31.996 0.05 36.85 0.004 A 67.58 67.58 0 0 1 37.5 0 A 64.749 64.749 0 0 1 51.523 1.486 A 59.535 59.535 0 0 1 53.43 1.941 A 93.376 93.376 0 0 1 62.927 4.946 A 116.271 116.271 0 0 1 69.287 7.544 L 61.963 25.196 Q 54.565 22.193 48.706 20.545 A 43.889 43.889 0 0 0 36.768 18.897 A 22.325 22.325 0 0 0 33.522 19.121 Q 31.3 19.447 29.517 20.252 A 11.372 11.372 0 0 0 26.951 21.822 A 9.243 9.243 0 0 0 24.976 24.06 A 10.098 10.098 0 0 0 23.496 28.507 A 12.631 12.631 0 0 0 23.438 29.737 A 10.756 10.756 0 0 0 23.896 32.94 A 8.933 8.933 0 0 0 25.671 36.145 A 15.996 15.996 0 0 0 27.666 38.07 Q 28.751 38.96 30.116 39.827 A 36.202 36.202 0 0 0 32.41 41.163 A 193.129 193.129 0 0 0 36.102 43.089 Q 37.772 43.938 39.659 44.867 A 404.124 404.124 0 0 0 43.652 46.802 A 106.823 106.823 0 0 1 50.82 50.514 Q 54.114 52.39 56.894 54.338 A 63.653 63.653 0 0 1 57.678 54.895 Q 63.501 59.107 66.65 64.783 A 23.678 23.678 0 0 1 69.012 71.146 Q 69.652 74.01 69.772 77.327 A 43.039 43.039 0 0 1 69.8 78.882 A 33.061 33.061 0 0 1 68.664 87.716 A 27.152 27.152 0 0 1 65.186 95.435 Q 60.571 102.466 51.746 106.275 Q 42.92 110.083 30.322 110.083 A 79.522 79.522 0 0 1 19.446 109.351 A 70.334 70.334 0 0 1 9.417 107.235 A 65.147 65.147 0 0 1 9.265 107.19 A 60.125 60.125 0 0 1 0 103.638 Z" id="0" vector-effect="non-scaling-stroke"/>
		<path d="M 184.204 1.538 L 184.204 108.619 L 155.347 108.619 L 108.765 27.613 L 108.105 27.613 Q 108.398 32.666 108.618 37.793 Q 108.838 42.92 109.058 48.011 Q 109.277 53.101 109.497 58.228 L 109.497 108.619 L 89.209 108.619 L 89.209 1.538 L 117.847 1.538 L 164.355 81.739 L 164.868 81.739 A 644.911 644.911 0 0 0 164.502 71.851 Q 164.282 66.944 164.099 62.037 Q 163.916 57.129 163.77 52.222 L 163.77 1.538 L 184.204 1.538 Z" id="1" vector-effect="non-scaling-stroke"/>
		<path d="M 272.827 89.869 L 272.827 108.619 L 211.157 108.619 L 211.157 1.538 L 272.827 1.538 L 272.827 20.142 L 233.862 20.142 L 233.862 43.653 L 270.117 43.653 L 270.117 62.256 L 233.862 62.256 L 233.862 89.869 L 272.827 89.869 Z" id="2" vector-effect="non-scaling-stroke"/>
		<path d="M 385.181 108.619 L 360.718 108.619 L 352.954 83.13 L 313.916 83.13 L 306.152 108.619 L 281.689 108.619 L 319.482 1.099 L 347.241 1.099 L 385.181 108.619 Z M 319.629 64.087 L 347.534 64.087 L 339.771 39.185 Q 339.115 36.957 338.079 33.587 A 932.613 932.613 0 0 0 337.83 32.776 A 819.539 819.539 0 0 1 335.413 24.793 A 199.886 199.886 0 0 1 334.573 21.894 Q 334.171 20.461 333.841 19.191 A 102.898 102.898 0 0 1 333.472 17.725 Q 332.757 20.655 331.519 24.946 A 321.864 321.864 0 0 1 331.458 25.159 A 1467.799 1467.799 0 0 1 330.203 29.471 A 1241.411 1241.411 0 0 1 329.004 33.545 A 2089.881 2089.881 0 0 1 328.459 35.381 Q 327.784 37.654 327.405 38.904 A 237.383 237.383 0 0 1 327.319 39.185 L 319.629 64.087 Z" id="3" vector-effect="non-scaling-stroke"/>
		<path d="M 447.144 48.926 L 484.79 108.619 L 459.009 108.619 L 430.957 63.501 L 421.362 70.386 L 421.362 108.619 L 398.657 108.619 L 398.657 1.538 L 421.362 1.538 L 421.362 50.538 Q 423.633 47.388 425.83 44.239 Q 428.027 41.089 430.298 37.94 L 459.302 1.538 L 484.497 1.538 L 447.144 48.926 Z" id="4" vector-effect="non-scaling-stroke"/>
		<path d="M 559.937 89.869 L 559.937 108.619 L 498.267 108.619 L 498.267 1.538 L 559.937 1.538 L 559.937 20.142 L 520.972 20.142 L 520.972 43.653 L 557.227 43.653 L 557.227 62.256 L 520.972 62.256 L 520.972 89.869 L 559.937 89.869 Z" id="5" vector-effect="non-scaling-stroke"/>
		<path d="M 582.275 1.538 L 613.477 1.538 A 99.774 99.774 0 0 1 623.295 1.993 Q 631.46 2.802 637.537 5.054 A 33.4 33.4 0 0 1 644.614 8.62 A 24.682 24.682 0 0 1 651.636 15.674 A 27.32 27.32 0 0 1 655.286 24.491 Q 656.126 28.126 656.234 32.354 A 49.407 49.407 0 0 1 656.25 33.619 A 32.653 32.653 0 0 1 655.638 40.083 A 24.864 24.864 0 0 1 653.467 46.436 Q 650.684 51.929 646.143 55.738 A 43.284 43.284 0 0 1 636.328 61.963 L 667.822 108.619 L 642.627 108.619 L 617.065 67.53 L 604.98 67.53 L 604.98 108.619 L 582.275 108.619 L 582.275 1.538 Z M 611.865 20.142 L 604.98 20.142 L 604.98 49.073 L 612.305 49.073 A 53.446 53.446 0 0 0 617.845 48.807 Q 623.435 48.222 626.842 46.351 A 12.275 12.275 0 0 0 628.455 45.301 A 12.208 12.208 0 0 0 633.04 37.544 A 18.596 18.596 0 0 0 633.325 34.205 A 17.292 17.292 0 0 0 632.864 30.069 A 10.473 10.473 0 0 0 628.088 23.365 Q 623.346 20.446 613.89 20.171 A 69.501 69.501 0 0 0 611.865 20.142 Z" id="6" vector-effect="non-scaling-stroke"/>
		<path d="M 674.707 103.638 L 674.707 82.544 A 174.07 174.07 0 0 0 690.527 88.623 A 52.602 52.602 0 0 0 703.757 91.238 A 48.234 48.234 0 0 0 706.787 91.333 A 34.534 34.534 0 0 0 710.34 91.162 Q 712.078 90.982 713.536 90.612 A 14.907 14.907 0 0 0 715.759 89.869 A 12.967 12.967 0 0 0 718.135 88.557 Q 719.702 87.447 720.629 85.962 A 8.254 8.254 0 0 0 720.703 85.84 A 10.848 10.848 0 0 0 722.196 81.092 A 13.37 13.37 0 0 0 722.241 79.981 A 9.644 9.644 0 0 0 719.531 73.096 A 21.969 21.969 0 0 0 716.775 70.667 Q 715.323 69.577 713.541 68.547 A 42.019 42.019 0 0 0 712.097 67.749 A 281.822 281.822 0 0 0 707.071 65.168 A 385.589 385.589 0 0 0 701.44 62.403 A 96.691 96.691 0 0 1 697.54 60.453 A 131.519 131.519 0 0 1 693.311 58.118 A 45.872 45.872 0 0 1 685.457 52.382 A 50.955 50.955 0 0 1 684.961 51.929 A 28.906 28.906 0 0 1 679.133 44.315 A 33.464 33.464 0 0 1 678.479 43.03 Q 676.045 37.985 675.956 31.003 A 41.8 41.8 0 0 1 675.952 30.469 A 34.993 34.993 0 0 1 676.824 22.476 A 26.552 26.552 0 0 1 680.347 14.063 A 27.243 27.243 0 0 1 690.33 4.901 A 33.951 33.951 0 0 1 692.908 3.626 A 40.524 40.524 0 0 1 702.422 0.797 Q 706.703 0.05 711.557 0.004 A 67.58 67.58 0 0 1 712.207 0 A 64.749 64.749 0 0 1 726.23 1.486 A 59.535 59.535 0 0 1 728.137 1.941 A 93.376 93.376 0 0 1 737.634 4.946 A 116.271 116.271 0 0 1 743.994 7.544 L 736.67 25.196 Q 729.272 22.193 723.413 20.545 A 43.889 43.889 0 0 0 711.475 18.897 A 22.325 22.325 0 0 0 708.229 19.121 Q 706.007 19.447 704.224 20.252 A 11.372 11.372 0 0 0 701.658 21.822 A 9.243 9.243 0 0 0 699.683 24.06 A 10.098 10.098 0 0 0 698.203 28.507 A 12.631 12.631 0 0 0 698.145 29.737 A 10.756 10.756 0 0 0 698.603 32.94 A 8.933 8.933 0 0 0 700.378 36.145 A 15.996 15.996 0 0 0 702.373 38.07 Q 703.458 38.96 704.823 39.827 A 36.202 36.202 0 0 0 707.117 41.163 A 193.129 193.129 0 0 0 710.809 43.089 Q 712.479 43.938 714.366 44.867 A 404.124 404.124 0 0 0 718.359 46.802 A 106.823 106.823 0 0 1 725.527 50.514 Q 728.821 52.39 731.601 54.338 A 63.653 63.653 0 0 1 732.385 54.895 Q 738.208 59.107 741.357 64.783 A 23.678 23.678 0 0 1 743.719 71.146 Q 744.359 74.01 744.479 77.327 A 43.039 43.039 0 0 1 744.507 78.882 A 33.061 33.061 0 0 1 743.371 87.716 A 27.152 27.152 0 0 1 739.893 95.435 Q 735.278 102.466 726.453 106.275 Q 717.627 110.083 705.029 110.083 A 79.522 79.522 0 0 1 694.153 109.351 A 70.334 70.334 0 0 1 684.124 107.235 A 65.147 65.147 0 0 1 683.972 107.19 A 60.125 60.125 0 0 1 674.707 103.638 Z" id="7" vector-effect="non-scaling-stroke"/>
	</g>
</svg>